<svg version="1" xmlns="http://www.w3.org/2000/svg" width="140" height="44" viewBox="0 0 1400 440"><g fill="#fff"><path d="M720 425c-22-27-6-108 40-202 24-48 42-96 41-106-1-9 4-17 11-17s32-23 56-50c33-38 50-50 71-50h28l-46 48-46 47 38 3c56 5 47 28-15 38l-53 9-42 82c-48 94-64 167-40 190 13 13 19 12 56-12 55-37 109-125 66-109-22 9-19-19 10-81 14-30 34-55 44-58 27-7 84 6 88 20 2 6-17 33-43 60-33 34-47 55-45 72s-12 38-53 77c-52 50-59 54-105 54-31 0-53-5-61-15zm244-212c9-23-11-14-28 12-17 25-16 25 3 13 11-7 23-18 25-25zM62 358c-17-17-15-48 5-70 15-17 15-18-10-18-30 0-57-24-57-51C0 138 108 46 220 33c61-7 96 2 111 28 16 30 4 35-35 14-29-16-39-17-82-6C94 99-19 213 50 235c38 12 184-52 195-85 3-10 15-25 25-35 16-15 23-16 33-6 9 9 6 22-14 59-15 26-25 52-23 57 2 6-24 41-59 78-54 58-67 67-98 67-19 0-40-5-47-12zm72-30c14-6 32-21 41-34l15-23-47 14c-52 16-68 28-59 44 9 14 19 14 50-1zM550 287c0-8 6-20 14-26 8-7 12-21 9-32-6-23 19-54 59-75 36-19 78-18 78 1 0 9-9 15-23 15-24 0-67 25-67 40 0 6 10 6 26 0 37-14 64-12 64 5 0 8-9 15-21 15-11 0-32 13-47 30-32 34-92 52-92 27zM1060 287c0-8 6-20 14-26 8-7 12-21 9-32-6-23 19-54 59-75 36-19 78-18 78 1 0 9-9 15-23 15-24 0-67 25-67 40 0 6 10 6 26 0 37-14 64-12 64 5 0 8-9 15-21 15-11 0-32 13-47 30-32 34-92 52-92 27zM340 275c-25-31 54-155 81-128 9 9 6 19-10 39-34 44-24 51 17 11 46-45 67-49 57-9-4 15-6 40-6 55 0 34-23 46-47 24-16-14-19-14-42 3-30 24-34 24-50 5zM1267 283c-12-11-8-38 13-78 23-45 41-54 88-48 45 7 42 34-13 88-41 42-72 55-88 38zm77-70c9-23-11-14-28 12-17 25-16 25 3 13 11-7 23-18 25-25z"/></g></svg>